# xmcd
#
# Track frame offsets:
#	150
#	23239
#	41724
#	58491
#	68750
#	83007
#	102819
#	123147
#	140760
#	158962
#	176048
#	192060
#
# Disc length: 2843 seconds
#
# Revision: 2
# Processed by: cddbd v1.5.2PL0 Copyright (c) Steve Scherf et al.
# Submitted via: audiograbber 1.83.01
#
DISCID=a40b190c
DTITLE=Various  - Body and Soul Duets - Disc 1
DYEAR=2003
DGENRE=Soul
TTITLE0=Ann Nesby and Al Green - Put It On Paper
TTITLE1=Dennis Edwards and Siedah Garrett - Don't Look Any Further
TTITLE2=Sharon Paige, Harold Melvin and The Blue Notes - Hope That We Can Be Toge
TTITLE2=ther Soon
TTITLE3=Marvin Gaye and Tammi Terrell - Ain't Nothing Like The Real Thing
TTITLE4=Diana Ross, The Supremes and The Temptations - I'm Gonna Make You Love Me
TTITLE5=Jerry Butler and Brenda Lee Eager - Ain't Understanding Mellow
TTITLE6=Diana Ross and Lionel Richie - Endless Love
TTITLE7=Marilyn McCoo and Billy Davis Jr. - You Don't Have To Be A Star (To Be in
TTITLE7=My Show)
TTITLE8=Peaches and Herb - Reunited
TTITLE9=Ashford and Simpson - Solid
TTITLE10=Peabo Bryson and Roberta Flack - Tonight, I Celebrate My Love
TTITLE11=Stephanie Mills and Teddy Pendergrass - Two Hearts
EXTD=Time-Life's Classic Soul Ballads collections
EXTT0=
EXTT1=
EXTT2=
EXTT3=
EXTT4=
EXTT5=
EXTT6=
EXTT7=
EXTT8=
EXTT9=
EXTT10=
EXTT11=
PLAYORDER=
